<mxfile host="65bd71144e">
    <diagram id="T58U8U9vs3LHrJeYVH_0" name="Page-1">
        <mxGraphModel dx="750" dy="401" grid="1" gridSize="10" guides="1" tooltips="1" connect="1" arrows="1" fold="1" page="1" pageScale="1" pageWidth="827" pageHeight="1169" math="0" shadow="0">
            <root>
                <mxCell id="0"/>
                <mxCell id="1" parent="0"/>
                <mxCell id="2" value="" style="rounded=0;whiteSpace=wrap;html=1;" vertex="1" parent="1">
                    <mxGeometry x="70" y="30" width="600" height="460" as="geometry"/>
                </mxCell>
                <mxCell id="3" value="" style="rounded=0;whiteSpace=wrap;html=1;shadow=1;fillColor=#f5f5f5;fontColor=#333333;strokeColor=#666666;" vertex="1" parent="1">
                    <mxGeometry x="130" y="70" width="490" height="390" as="geometry"/>
                </mxCell>
                <mxCell id="4" value="Title" style="rounded=0;whiteSpace=wrap;html=1;shadow=1;" vertex="1" parent="1">
                    <mxGeometry x="160" y="80" width="430" height="50" as="geometry"/>
                </mxCell>
                <mxCell id="5" value="Player scores&amp;nbsp;&lt;br&gt;Game Totals" style="rounded=0;whiteSpace=wrap;html=1;shadow=1;" vertex="1" parent="1">
                    <mxGeometry x="160" y="140" width="430" height="70" as="geometry"/>
                </mxCell>
                <mxCell id="6" value="Deck" style="rounded=0;whiteSpace=wrap;html=1;shadow=1;" vertex="1" parent="1">
                    <mxGeometry x="160" y="250" width="140" height="110" as="geometry"/>
                </mxCell>
                <mxCell id="7" value="Player Hand" style="rounded=0;whiteSpace=wrap;html=1;shadow=1;" vertex="1" parent="1">
                    <mxGeometry x="330" y="340" width="260" height="70" as="geometry"/>
                </mxCell>
                <mxCell id="8" value="Computer Hand&amp;nbsp;" style="rounded=0;whiteSpace=wrap;html=1;shadow=1;" vertex="1" parent="1">
                    <mxGeometry x="330" y="230" width="260" height="70" as="geometry"/>
                </mxCell>
                <mxCell id="9" value="Stick with hand" style="rounded=0;whiteSpace=wrap;html=1;shadow=1;" vertex="1" parent="1">
                    <mxGeometry x="160" y="380" width="140" height="50" as="geometry"/>
                </mxCell>
            </root>
        </mxGraphModel>
    </diagram>
</mxfile>